<?xml version="1.0" encoding="utf-8"?>
<!-- Generator: Adobe Illustrator 22.1.0, SVG Export Plug-In . SVG Version: 6.00 Build 0)  -->
<svg version="1.1" id="Camada_1" xmlns="http://www.w3.org/2000/svg" xmlns:xlink="http://www.w3.org/1999/xlink" x="0px" y="0px"
	 viewBox="0 0 625 400" style="enable-background:new 0 0 625 400;" xml:space="preserve">
<style type="text/css">
	.st0{fill:#FFFFFF;}
	.st1{fill:#858C8F;}
	.st2{fill:none;stroke:#858C8F;stroke-width:2;}
	.st3{fill:#A8C038;}
	.st4{fill:#A8C038;stroke:#A8C038;stroke-width:0.5;}
	.st5{fill:#FFFFFF;stroke:#A8C038;stroke-width:0.5;}
	.st6{fill:none;stroke:#17C9B2;stroke-width:0.5;stroke-linecap:square;}
	.st7{fill:#FFFFFF;stroke:#A8C038;}
	.st8{fill:none;stroke:#A8C038;stroke-width:0.5;stroke-linecap:square;}
	.st9{fill:none;stroke:#A8C038;}
	.st10{fill:#FFFFFF;stroke:#858C8F;}
	.st11{opacity:0.8;fill:#EBF1F4;stroke:#858C8F;enable-background:new    ;}
	.st12{fill:none;stroke:#858C8F;}
	.st13{fill:#FFFFFF;stroke:#A8C038;stroke-width:2;}
	.st14{fill:#FCFCFC;stroke:#858C8F;}
	.st15{enable-background:new    ;}
</style>
<title>img</title>
<rect x="0" class="st0" width="625.1" height="399.9"/>
<path class="st1" d="M446.2,151l3.2,3.2l-1.2,1.2l-3.2-3.2L446.2,151L446.2,151z M440.9,151l1.2,1.2l-3.2,3.2l-1.2-1.2L440.9,151z
	 M448.3,143.7l1.2,1.2l-3.2,3.2L445,147L448.3,143.7L448.3,143.7z M438.8,143.7l3.2,3.2l-1.2,1.2l-3.2-3.2L438.8,143.7z"/>
<circle class="st2" cx="130.4" cy="130.5" r="5.8"/>
<path class="st3" d="M127.6,281v3h-17.7v-3H127.6z M108.4,281v3h-7.3v-3H108.4z M114.3,273.7v3H92.2v-3H114.3z M126,273.7v3h-8.8v-3
	H126z M505.4,85.4v3h-16.2v-3H505.4z M486.4,85.4v3h-5.8v-3H486.4z M493.8,76.6v3h-19.1v-3C474.6,76.6,493.8,76.6,493.8,76.6z
	 M504.1,76.6v3h-8.8v-3C495.3,76.6,504.1,76.6,504.1,76.6z"/>
<ellipse class="st4" cx="174" cy="256.4" rx="30.8" ry="30.8"/>
<ellipse class="st5" cx="174" cy="256.4" rx="24.7" ry="24.7"/>
<path class="st6" d="M146,242.3l-1.6-0.7 M146.7,240.8l-1.6-0.7"/>
<path class="st7" d="M142.1,244.4l-3.1-1.5c-0.3-0.9-0.2-1.9,0.3-2.7l2.2-4.8c0.3-0.8,1.1-1.3,1.8-1.1c0.2,0.1,0.3,0.2,0.4,0.3
	l3.1,1.5L142.1,244.4z"/>
<path class="st8" d="M146,242.3l-1.6-0.7 M146.7,240.8l-1.6-0.7"/>
<path class="st7" d="M190.7,226.7l1.5-3.1c-0.4-0.9-1.2-1.6-2.1-1.9l-4.8-2.2c-0.7-0.4-1.6-0.3-2.1,0.4c-0.1,0.2-0.2,0.3-0.2,0.4
	l-1.5,3.1L190.7,226.7z"/>
<path class="st8" d="M186.4,227.5l0.7-1.6 M184.9,226.9l0.7-1.6 M173.6,273.6l-0.3,3.9l-0.6-0.1l0.4-3.9L173.6,273.6z M181.4,271.8
	l0.2,0.3l2.1,2.5l0.2,0.3l-0.4,0.4l-0.3-0.3l-2.1-2.5l-0.2-0.3L181.4,271.8z M164.5,270.3l0.4,0.4l-0.3,0.2l-2.5,2.1l-0.3,0.2
	l-0.4-0.4l0.3-0.2l2.5-2.1L164.5,270.3z M158.4,263l0.4,0.4l-0.3,0.2l-2.5,2.1l-0.3,0.2l-0.4-0.4l0.3-0.2l2.5-2.1L158.4,263
	L158.4,263z M188.7,265.7l0.3,0.2l3.1,2.5l0.3,0.2L192,269l-0.3-0.2l-3.1-2.5l-0.3-0.2L188.7,265.7z M195.5,257.2l-0.1,0.6l-3.9-0.4
	l0.1-0.6L195.5,257.2z M157.2,253.9l-0.1,0.6l-3.9-0.4l0.1-0.6L157.2,253.9z M192.7,246.7l0.4,0.4l-0.3,0.2l-2.5,2.1l-0.3,0.3
	l-0.4-0.4l0.3-0.2l2.5-2.1L192.7,246.7z M157.8,243.6l0.3,0.3l2.1,2.5l0.2,0.3l-0.4,0.4l-0.2-0.3l-2.1-2.4l-0.2-0.3L157.8,243.6z
	 M186.5,239.4l0.4,0.4l-0.3,0.3l-2.5,2.1l-0.3,0.2l-0.4-0.4l0.3-0.2l2.5-2.1L186.5,239.4z M166.4,237.7l0.1,0.3l0.9,2.3l0.1,0.3
	l-0.5,0.3l-0.1-0.3l-0.9-2.3l-0.1-0.3C165.9,237.9,166.4,237.7,166.4,237.7z M177,235.3l-0.4,3.9l-0.6-0.1l0.4-3.9L177,235.3
	L177,235.3z"/>
<path class="st9" d="M170.1,244.1l5,11.9l5,11.8"/>
<path class="st10" d="M205.8,273H181c0.9,6.2,3.2,10.1,6.9,11.8c3.7,1.7,90.8,1.7,261.4,0c6.5-1.7,9.7-5.7,9.7-11.8h-30.4"/>
<path class="st10" d="M204.8,155.8h237.5v118.3H204.8V155.8z"/>
<path class="st11" d="M213.6,163.3h219.8v103.5H213.6L213.6,163.3L213.6,163.3z"/>
<path class="st12" d="M291.2,274.6c1,3,2.5,4.4,4.4,4.4h58.9c3-1,4.4-2.5,4.4-4.4H291.2z"/>
<path class="st9" d="M298.2,233.6c2.2-11.8,9-17.7,20.1-17.7c11.1,0,18.2,5.2,21.2,15.4"/>
<path class="st13" d="M308.6,157.9c-19.1-0.4-32.1,4.9-39,16.1c-2.3,2.7,6.6-40.1,31.1-41.3 M338.5,170c14.1,13,19.7,25.9,16.9,38.6
	c-0.3,3.6,23.1-33.5,6.2-51.3"/>
<path class="st13" d="M319.8,172.2c-19-23.1-23.4-47.1-13.3-72.1s30-39.3,59.7-42.7c20.4,23.6,25.5,47.9,15.4,72.9
	C371.5,155.3,350.8,169.4,319.8,172.2z"/>
<path class="st9" d="M338.1,65.1c12.7,11.5,27.3,17.3,43.6,17.7"/>
<ellipse class="st3" cx="345.5" cy="109.5" rx="14.7" ry="14.7"/>
<path class="st9" d="M311.4,171.6v81.3c0,3.8-2.2,5.7-6.6,5.7c-4.4,0-6.6-1.2-6.6-3.4 M318.8,177.6l1.5,73.7 M327.7,176.1v66
	c0.7,2.2,2.5,3.2,5.3,3.2c2.5,0.2,5-1.2,6.4-3.2 M232,263.1c0-11.8,6.5-18.2,19.4-19c1.2,0,2.2-17.9,20.5-17.9
	c10.6,0.7,17.4,4.8,20.5,12.2 M251.2,267.5c0-6.7,2-11.3,5.7-13.6c5.7-3.4,11.5-3.3,16.1,1.2c3.5,4.5-2.3-3.4,4.6-9.1
	c3.1-2.2,6.6-2.6,10.4-1.2 M405.7,263.1c0-11.8-6.5-18.2-19.4-19c-1.2,0-2.2-17.9-20.5-17.9c-10.7,0.7-17.5,4.8-20.5,12.2"/>
<path class="st9" d="M395.4,267.5c0-6.7-2-11.3-5.7-13.6c-5.7-3.4-11.5-3.3-16.1,1.2c-3.5,4.5,2.3-3.4-4.6-9.1
	c-3.1-2.2-6.6-2.6-10.4-1.2"/>
<path class="st14" d="M458.9,212.8v68.6c6.3,4.2,16.2,6.3,29.9,6.3c13.6,0,24.4-2.1,32.3-6.3v-11c13.6-2.6,20.5-9.6,20.5-20.9
	c0-17-9.5-24-20.5-24v-12.7c-1.6-3.1-12.3-4.8-32.3-4.8C468.9,208.1,458.9,209.7,458.9,212.8z"/>
<path class="st10" d="M520.9,231.7v29.5c9.9-1.1,14.8-5.7,14.8-14C535.7,238.9,530.7,233.8,520.9,231.7z M458.9,212.6
	c3.7,3,14.6,4.4,33,4.4c18.3,0,27.9-1.5,29-4.4c-3.1-3-13.5-4.4-31-4.4C470.3,208.1,459.9,209.6,458.9,212.6z"/>
<path class="st3" d="M489.5,257.7c4.4,0,8.6,0,13,0c0.4,0,1,0,1.3,0.2c1.4,0.4,2.1,2.1,1.3,3.4c-0.4,0.8-1.1,1.6-1.6,2.2
	c-3.1,3.5-7.1,5.7-11.8,6.2c-7.4,0.7-13.3-2-17.8-8c-0.6-0.8-0.7-1.7-0.3-2.7c0.5-1,1.4-1.3,2.5-1.3c2.5,0,5.2,0,7.7,0
	C485.9,257.7,487.7,257.7,489.5,257.7z M489.5,259.8c-4.4,0-8.8,0-13.2,0c-0.3,0-0.5-0.1-0.6,0.3c-0.1,0.3,0.1,0.4,0.3,0.6
	c1,1.4,2.2,2.6,3.5,3.7c0.3,0.3,0.4,0.3,0.7-0.1c2.2-2.6,5.8-3.3,8.9-1.6c0.4,0.3,0.6,0.3,1,0c2.7-1.6,6-1.2,8.3,1
	c0.3,0.3,0.4,0.9,1,0.8c0.4-0.1,0.7-0.5,1.1-0.7c1.1-0.9,2.1-2,2.9-3.1c0.3-0.4,0.3-0.6-0.3-0.7c-0.2,0-0.4,0-0.5,0
	C498.1,259.8,493.8,259.8,489.5,259.8z M489.5,267.6c0.4,0,0.7-0.1,1.2-0.1c2.2-0.2,4.2-0.7,6.2-1.6c0.5-0.3,0.4-0.4,0.1-0.7
	c-1.7-1.6-4.4-1.9-6.3-0.4c-1.1,0.7-1.2,0.7-2.2,0c-1.9-1.3-4.6-1.2-6.2,0.4c-0.5,0.4-0.4,0.5,0.1,0.8
	C484.6,267.2,486.9,267.6,489.5,267.6z"/>
<path class="st3" d="M482.6,238.6c0.1,0.7-0.3,1.2-0.9,1.3c-0.7,0.1-1.2-0.3-1.2-1.1c-0.1-0.8-0.5-1.5-1.3-1.7
	c-0.7-0.3-1.4-0.1-2,0.4c-0.6,0.5-0.7,1.3-0.4,2.1c0.3,0.7,0.8,1.2,1.6,1.3c1,0.1,1.9,0.3,2.6,0.8c2.5,1.9,2.1,5.7-0.7,6.9
	c-0.4,0.3-0.6,0.4-0.6,0.9c0,0.3,0,0.5-0.2,0.8c-0.3,0.4-0.5,0.6-1,0.6s-0.7-0.3-1-0.7c-0.1-0.1-0.1-0.3-0.1-0.3
	c0.2-0.9-0.4-1.2-1.2-1.6c-1.2-0.7-1.9-1.9-1.9-3.3c0-0.7,0.4-1.1,0.9-1.2c0.5-0.1,1,0.3,1.2,1c0,0.2,0.1,0.3,0.1,0.4
	c0.3,1.1,1.1,1.6,2.2,1.5c0.9-0.1,1.6-1,1.6-1.9c0-1-0.8-1.8-1.8-1.9c-1.3-0.1-2.4-0.4-3.2-1.5c-1.6-2.1-1.1-5.1,1.3-6.2
	c0.5-0.3,0.7-0.5,0.7-1.2c0-0.3,0.1-0.6,0.3-0.8c0.3-0.4,0.6-0.5,1.1-0.4c0.4,0.2,0.8,0.4,0.8,1c-0.1,0.9,0.4,1.3,1.2,1.6
	C481.9,236.1,482.5,237.1,482.6,238.6z"/>
<path class="st3" d="M504.5,238.4c0,1-0.3,1.3-0.9,1.4s-1.1-0.3-1.2-1c-0.3-1.6-1.4-2.2-2.6-1.8c-0.8,0.3-1.3,1.2-1.2,2.1
	c0.2,0.9,0.8,1.6,1.7,1.6c1.2,0.1,2.3,0.4,3.1,1.3c1.9,2,1.3,5.1-1.1,6.4c-0.5,0.3-0.9,0.5-0.7,1.2c0,0.2,0,0.3-0.1,0.4
	c-0.2,0.5-0.6,0.9-1.2,0.8c-0.6-0.1-1-0.4-1-0.9c0.1-0.9-0.4-1.3-1.2-1.6c-1.2-0.7-1.8-1.8-1.9-3.1c-0.1-0.7,0.3-1.2,0.9-1.3
	s1.1,0.4,1.2,1.1c0.3,1.5,1.4,2.2,2.6,1.7c0.9-0.4,1.3-1.2,1.2-2.1s-0.9-1.5-1.8-1.6c-1.4-0.1-2.6-0.6-3.5-1.8
	c-1.4-2.1-0.6-4.8,1.6-5.9c0.5-0.3,0.7-0.5,0.6-1c0-0.3,0-0.4,0.1-0.6c0.2-0.4,0.4-0.7,1-0.8c0.5,0,0.8,0.3,1,0.7
	c0,0.1,0.1,0.2,0.1,0.3c-0.2,0.9,0.4,1.3,1.2,1.6C503.9,236.1,504.5,237.1,504.5,238.4z"/>
<g class="st15">
	<path class="st3" d="M102.5,103.6V70.5h9.2c2.4,0,4.2,0.6,5.4,2c1.2,1.3,1.8,3.2,1.8,5.8v15.5c0,3.1-0.5,5.6-1.6,7.3
		c-1.1,1.7-3.1,2.6-5.7,2.6L102.5,103.6L102.5,103.6z M109.2,97.8h1.2c1.3,0,1.8-0.6,1.8-1.8V79c0-1.1-0.2-1.8-0.4-2.2
		c-0.3-0.4-0.9-0.4-1.8-0.4h-0.7V97.8z"/>
	<path class="st3" d="M121.6,103.6V70.5h13.3v6.4h-6.6v6.5h6.3v6.3h-6.3v7.6h6.9v6.5L121.6,103.6L121.6,103.6z"/>
	<path class="st3" d="M145.3,104c-3.1,0-5.2-0.7-6.6-2.2c-1.3-1.5-2-3.9-2-7.2v-3.2h6.6v4.1c0,0.8,0.1,1.3,0.4,1.8
		c0.3,0.4,0.6,0.6,1.3,0.6c0.6,0,1-0.2,1.3-0.5c0.3-0.4,0.4-0.9,0.4-1.7c0-1-0.1-1.9-0.3-2.5c-0.2-0.7-0.5-1.3-1.1-2
		c-0.5-0.6-1.2-1.3-2.1-2.2l-3-2.8c-2.2-2.1-3.3-4.5-3.3-7.2c0-2.8,0.6-4.9,2-6.5c1.3-1.5,3.2-2.2,5.7-2.2c3.1,0,5.2,0.8,6.5,2.4
		c1.3,1.6,1.9,4,1.9,7.4h-6.8v-2.2c0-0.4-0.1-0.8-0.4-1.1c-0.3-0.3-0.6-0.4-1.1-0.4c-0.5,0-0.9,0.2-1.2,0.4
		c-0.3,0.3-0.4,0.7-0.4,1.2c0,0.4,0.1,1,0.4,1.5c0.3,0.5,0.7,1.2,1.5,1.9l3.9,3.7c0.8,0.7,1.4,1.5,2.1,2.3c0.6,0.8,1.2,1.8,1.5,2.8
		c0.4,1.1,0.6,2.4,0.6,3.9c0,3.1-0.5,5.6-1.7,7.4C150.2,103.1,148.1,104,145.3,104z"/>
	<path class="st3" d="M158.1,103.6V76.9h-3.9v-6.4h14.5v6.4h-3.9v26.7H158.1z"/>
	<path class="st3" d="M170.5,103.6V70.5h10.1c1.7,0,3,0.4,3.9,1.2c0.9,0.8,1.4,1.9,1.7,3.2s0.4,3.1,0.4,4.8s-0.3,3.2-0.7,4.3
		c-0.4,1.1-1.3,1.8-2.6,2.2c1.1,0.2,1.8,0.7,2.2,1.5c0.4,0.8,0.6,1.9,0.6,3.2v12.6h-6.6V90.7c0-1-0.2-1.5-0.6-1.8
		c-0.4-0.3-1.1-0.4-1.9-0.4v15.1C177,103.6,170.5,103.6,170.5,103.6z M177.2,82.8h1.6c0.9,0,1.3-1,1.3-3c0-1.3-0.1-2.2-0.3-2.5
		c-0.2-0.4-0.5-0.6-1.2-0.6h-1.5V82.8z"/>
	<path class="st3" d="M188,103.6l3.2-33.1h11.2l3.1,33.1h-6.3l-0.4-5.4h-3.9l-0.4,5.4H188z M195.3,93h3.1l-1.5-16.9h-0.3L195.3,93z"
		/>
	<path class="st3" d="M209.8,103.6l-4.1-33.1h6.3l2.4,22.5l2.2-22.5h6.3l-4.1,33.1H209.8z"/>
	<path class="st3" d="M223.1,103.6l3.2-33.1h11.2l3.1,33.1h-6.3l-0.4-5.4H230l-0.4,5.4H223.1z M230.5,93h3.1L232,76.2h-0.3L230.5,93
		z"/>
	<path class="st3" d="M242.8,103.6V70.5h6.8l3.1,15.9V70.5h6.4v33.1h-6.5l-3.3-16.5v16.6L242.8,103.6L242.8,103.6z"/>
	<path class="st3" d="M262,103.6V70.5h9.2c2.4,0,4.2,0.6,5.4,2c1.2,1.3,1.8,3.2,1.8,5.8v15.5c0,3.1-0.5,5.6-1.6,7.3
		c-1.1,1.7-3.1,2.6-5.7,2.6L262,103.6L262,103.6z M268.6,97.8h1.2c1.3,0,1.8-0.6,1.8-1.8V79c0-1.1-0.2-1.8-0.4-2.2
		c-0.3-0.4-0.9-0.4-1.8-0.4h-0.7V97.8z"/>
	<path class="st3" d="M288.9,104c-2.7,0-4.7-0.8-6.1-2.4c-1.4-1.6-2.1-3.9-2.1-6.9V78.9c0-2.9,0.7-5,2.1-6.5
		c1.3-1.4,3.4-2.2,6.1-2.2c2.7,0,4.7,0.7,6.1,2.2c1.3,1.4,2.1,3.6,2.1,6.5v15.7c0,3.1-0.7,5.3-2.1,6.9
		C293.6,103.2,291.5,104,288.9,104z M288.9,97.9c1,0,1.5-1,1.5-3V78.8c0-1.6-0.4-2.4-1.4-2.4c-1.1,0-1.6,0.8-1.6,2.5V95
		c0,1,0.1,1.8,0.4,2.2C287.9,97.6,288.4,97.9,288.9,97.9z"/>
</g>
<g class="st15">
	<path class="st1" d="M109.5,334.5c-2.4,0-4.3-0.7-5.8-2.2c-1.4-1.5-2.2-3.6-2.2-6.3v-15.3c0-3.2,0.6-5.7,1.9-7.4
		c1.3-1.7,3.3-2.6,6.2-2.6c1.5,0,3,0.3,4.2,0.9c1.3,0.5,2.2,1.4,2.9,2.6c0.7,1.2,1.1,2.6,1.1,4.3v5.7h-6.6v-4.9c0-1-0.1-1.6-0.4-2
		c-0.3-0.4-0.6-0.5-1.2-0.5c-0.6,0-1,0.2-1.3,0.6c-0.2,0.4-0.4,1.1-0.4,1.8v16.6c0,0.9,0.2,1.5,0.4,2c0.3,0.4,0.6,0.5,1.2,0.5
		c0.5,0,1-0.3,1.2-0.7c0.3-0.4,0.4-1.1,0.4-1.8v-6h6.6v6.3c0,2.9-0.7,5-2.2,6.4C114.2,333.8,112.1,334.5,109.5,334.5z"/>
	<path class="st1" d="M128,334.5c-2.7,0-4.7-0.8-6.1-2.4c-1.4-1.6-2.1-3.9-2.1-6.9v-15.7c0-2.9,0.7-5,2.1-6.5
		c1.3-1.4,3.4-2.2,6.1-2.2s4.7,0.7,6.1,2.2c1.3,1.4,2.1,3.6,2.1,6.5v15.7c0,3.1-0.7,5.3-2.1,6.9C132.7,333.7,130.6,334.5,128,334.5z
		 M128,328.4c1,0,1.5-1,1.5-3v-16.2c0-1.6-0.4-2.4-1.4-2.4c-1.1,0-1.6,0.8-1.6,2.5v16.2c0,1,0.1,1.8,0.4,2.2
		C127,328.1,127.5,328.4,128,328.4z"/>
	<path class="st1" d="M138.9,334.1V301h10l2.8,20.2l2.8-20.2h10.2v33.1h-6.1v-23.9l-3.8,23.9h-5.9l-4-23.9v23.9H138.9z"/>
</g>
<g class="st15">
	<path class="st3" d="M176.7,334.1V301h13.3v6.5h-6.6v5.3h6.3v6.4h-6.3v15L176.7,334.1L176.7,334.1z"/>
	<path class="st3" d="M192,334.1V301h13.3v6.4h-6.6v6.5h6.3v6.2h-6.3v7.6h6.9v6.5L192,334.1L192,334.1z"/>
	<path class="st3" d="M207.9,334.1V301H218c1.7,0,3,0.4,3.9,1.2c0.9,0.8,1.4,1.9,1.7,3.2c0.3,1.3,0.4,3.1,0.4,4.8
		c0,1.8-0.3,3.2-0.7,4.3c-0.4,1.1-1.3,1.8-2.6,2.2c1.1,0.2,1.8,0.7,2.2,1.5c0.4,0.8,0.6,1.9,0.6,3.2v12.6h-6.6v-13
		c0-1-0.2-1.5-0.6-1.8c-0.4-0.3-1.1-0.4-1.9-0.4V334L207.9,334.1L207.9,334.1z M214.6,313.3h1.6c0.9,0,1.3-1,1.3-3
		c0-1.3-0.1-2.2-0.3-2.5c-0.2-0.4-0.5-0.6-1.2-0.6h-1.5V313.3z"/>
	<path class="st3" d="M226.3,334.1V301h6.8l3.1,15.9V301h6.4v33.1h-6.5l-3.3-16.6v16.6H226.3z"/>
	<path class="st3" d="M244.6,334.1l3.2-33.1H259l3.1,33.1h-6.3l-0.4-5.4h-3.9l-0.4,5.4H244.6z M251.9,323.6h3.1l-1.4-16.9h-0.3
		L251.9,323.6z"/>
	<path class="st3" d="M264.2,334.1V301h6.8l3.1,15.9V301h6.4v33.1H274l-3.3-16.6v16.6H264.2z"/>
	<path class="st3" d="M283.4,334.1V301h9.2c2.4,0,4.2,0.6,5.4,2c1.2,1.3,1.8,3.2,1.8,5.8v15.5c0,3.1-0.5,5.6-1.6,7.3
		c-1.1,1.7-3.1,2.6-5.7,2.6L283.4,334.1L283.4,334.1z M290.1,328.3h1.2c1.3,0,1.8-0.6,1.8-1.8v-17c0-1.1-0.2-1.8-0.4-2.2
		c-0.3-0.4-0.9-0.4-1.8-0.4h-0.7V328.3z"/>
	<path class="st3" d="M310.4,334.5c-2.7,0-4.7-0.8-6.1-2.4c-1.4-1.6-2.1-3.9-2.1-6.9v-15.7c0-2.9,0.7-5,2.1-6.5
		c1.3-1.4,3.4-2.2,6.1-2.2c2.7,0,4.7,0.7,6.1,2.2c1.3,1.4,2.1,3.6,2.1,6.5v15.7c0,3.1-0.7,5.3-2.1,6.9
		C315,333.7,313,334.5,310.4,334.5z M310.4,328.4c1,0,1.5-1,1.5-3v-16.2c0-1.6-0.4-2.4-1.4-2.4c-1.1,0-1.6,0.8-1.6,2.5v16.2
		c0,1,0.1,1.8,0.4,2.2C309.4,328.1,309.8,328.4,310.4,328.4z"/>
	<path class="st3" d="M333.2,334.1l-4.1-33.1h6.3l2.4,22.5L340,301h6.3l-4.1,33.1H333.2z"/>
	<path class="st3" d="M346.6,334.1l3.2-33.1H361l3.1,33.1h-6.3l-0.4-5.4h-3.9l-0.4,5.4H346.6z M354,323.6h3.1l-1.4-16.9h-0.3
		L354,323.6z"/>
	<path class="st3" d="M374.1,334.5c-3.1,0-5.2-0.7-6.6-2.2c-1.3-1.5-2-3.9-2-7.2v-3.2h6.6v4.1c0,0.8,0.1,1.3,0.4,1.8
		c0.3,0.4,0.6,0.6,1.3,0.6c0.6,0,1-0.2,1.3-0.5c0.3-0.4,0.4-0.9,0.4-1.7c0-1-0.1-1.9-0.3-2.5c-0.2-0.7-0.5-1.3-1.1-2
		c-0.5-0.6-1.2-1.3-2.1-2.2l-3-2.8c-2.2-2.1-3.3-4.5-3.3-7.2c0-2.8,0.6-4.9,2-6.5s3.2-2.2,5.7-2.2c3.1,0,5.2,0.8,6.5,2.4
		c1.3,1.6,1.9,4,1.9,7.4h-6.7v-2.2c0-0.4-0.1-0.8-0.4-1.1c-0.3-0.3-0.6-0.4-1.1-0.4c-0.5,0-0.9,0.2-1.2,0.4
		c-0.3,0.3-0.4,0.7-0.4,1.2s0.1,1,0.4,1.5c0.3,0.5,0.7,1.2,1.5,1.9l3.9,3.7c0.8,0.7,1.4,1.5,2.2,2.3c0.6,0.8,1.2,1.8,1.5,2.8
		c0.4,1.1,0.6,2.4,0.6,3.9c0,3.1-0.5,5.6-1.7,7.4C378.9,333.6,376.9,334.5,374.1,334.5z"/>
	<path class="st3" d="M391.7,334.5c-2.4,0-4.3-0.7-5.8-2.2c-1.4-1.5-2.2-3.6-2.2-6.3v-15.3c0-3.2,0.6-5.7,1.9-7.4
		c1.3-1.7,3.3-2.6,6.2-2.6c1.5,0,3,0.3,4.2,0.9c1.3,0.5,2.2,1.4,2.9,2.6c0.7,1.2,1.1,2.6,1.1,4.3v5.7h-6.6v-4.9c0-1-0.1-1.6-0.4-2
		c-0.3-0.4-0.6-0.5-1.2-0.5c-0.6,0-1,0.2-1.3,0.6c-0.2,0.4-0.4,1.1-0.4,1.8v16.6c0,0.9,0.1,1.5,0.4,2c0.3,0.4,0.6,0.5,1.2,0.5
		c0.5,0,1-0.3,1.2-0.7c0.3-0.4,0.4-1.1,0.4-1.8v-6h6.6v6.3c0,2.9-0.7,5-2.2,6.4C396.4,333.8,394.3,334.5,391.7,334.5z"/>
	<path class="st3" d="M410.2,334.5c-2.7,0-4.7-0.8-6.1-2.4c-1.4-1.6-2.1-3.9-2.1-6.9v-15.7c0-2.9,0.7-5,2.1-6.5
		c1.3-1.4,3.4-2.2,6.1-2.2c2.7,0,4.7,0.7,6.1,2.2c1.3,1.4,2.1,3.6,2.1,6.5v15.7c0,3.1-0.7,5.3-2.1,6.9
		C414.9,333.7,412.8,334.5,410.2,334.5z M410.2,328.4c1,0,1.5-1,1.5-3v-16.2c0-1.6-0.4-2.4-1.4-2.4c-1.1,0-1.6,0.8-1.6,2.5v16.2
		c0,1,0.1,1.8,0.4,2.2C409.2,328.1,409.7,328.4,410.2,328.4z"/>
	<path class="st3" d="M421.1,334.1V301h6.8l3.1,15.9V301h6.4v33.1h-6.5l-3.3-16.6v16.6H421.1z"/>
	<path class="st3" d="M448,334.5c-2.4,0-4.3-0.7-5.8-2.2c-1.4-1.5-2.2-3.6-2.2-6.3v-15.3c0-3.2,0.6-5.7,1.9-7.4
		c1.3-1.7,3.3-2.6,6.2-2.6c1.5,0,3,0.3,4.2,0.9c1.3,0.5,2.2,1.4,2.9,2.6c0.7,1.2,1.1,2.6,1.1,4.3v5.7h-6.6v-4.9c0-1-0.1-1.6-0.4-2
		c-0.3-0.4-0.6-0.5-1.2-0.5c-0.6,0-1,0.2-1.3,0.6c-0.2,0.4-0.4,1.1-0.4,1.8v16.6c0,0.9,0.1,1.5,0.4,2c0.3,0.4,0.6,0.5,1.2,0.5
		c0.5,0,1-0.3,1.2-0.7c0.3-0.4,0.4-1.1,0.4-1.8v-6h6.6v6.3c0,2.9-0.7,5-2.2,6.4C452.7,333.8,450.6,334.5,448,334.5z"/>
	<path class="st3" d="M458.5,334.1V301h13.3v6.4h-6.6v6.5h6.3v6.2h-6.3v7.6h6.9v6.5L458.5,334.1L458.5,334.1z"/>
	<path class="st3" d="M474.4,334.1V301h6.6v27.5h6.8v5.7H474.4z"/>
	<path class="st3" d="M497.6,334.5c-2.7,0-4.7-0.8-6.1-2.4c-1.4-1.6-2.1-3.9-2.1-6.9v-15.7c0-2.9,0.7-5,2.1-6.5
		c1.3-1.4,3.4-2.2,6.1-2.2c2.7,0,4.7,0.7,6.1,2.2c1.3,1.4,2.1,3.6,2.1,6.5v15.7c0,3.1-0.7,5.3-2.1,6.9
		C502.3,333.7,500.2,334.5,497.6,334.5z M497.7,328.4c1,0,1.5-1,1.5-3v-16.2c0-1.6-0.4-2.4-1.4-2.4c-1.1,0-1.6,0.8-1.6,2.5v16.2
		c0,1,0.1,1.8,0.4,2.2C496.7,328.1,497.1,328.4,497.7,328.4z"/>
	<path class="st3" d="M516.4,334.5c-3.1,0-5.2-0.7-6.6-2.2c-1.3-1.5-2-3.9-2-7.2v-3.2h6.6v4.1c0,0.8,0.1,1.3,0.4,1.8
		c0.3,0.4,0.6,0.6,1.3,0.6s1-0.2,1.3-0.5c0.3-0.4,0.4-0.9,0.4-1.7c0-1-0.1-1.9-0.3-2.5c-0.2-0.7-0.5-1.3-1.1-2
		c-0.5-0.6-1.2-1.3-2.1-2.2l-3-2.8c-2.2-2.1-3.3-4.5-3.3-7.2c0-2.8,0.6-4.9,2-6.5c1.3-1.5,3.2-2.2,5.7-2.2c3.1,0,5.2,0.8,6.5,2.4
		c1.3,1.6,1.9,4,1.9,7.4h-6.7v-2.2c0-0.4-0.1-0.8-0.4-1.1c-0.3-0.3-0.6-0.4-1.1-0.4c-0.5,0-0.9,0.2-1.2,0.4
		c-0.3,0.3-0.4,0.7-0.4,1.2s0.1,1,0.4,1.5c0.3,0.5,0.7,1.2,1.5,1.9l3.9,3.7c0.8,0.7,1.4,1.5,2.1,2.3s1.2,1.8,1.5,2.8
		c0.4,1.1,0.6,2.4,0.6,3.9c0,3.1-0.5,5.6-1.7,7.4S519.1,334.5,516.4,334.5z"/>
</g>
<g>
	<g class="st15">
		<path class="st1" d="M396,136.4v-33.2h10l2.8,20.2l2.8-20.2h10.1v33.1h-6.1v-23.9l-3.8,23.9H406l-4-23.9v23.9L396,136.4L396,136.4
			z"/>
		<path class="st1" d="M424.8,136.4v-33.2h13.3v6.4h-6.6v6.5h6.3v6.2h-6.3v7.6h6.9v6.5L424.8,136.4L424.8,136.4z"/>
		<path class="st1" d="M440.7,136.4v-33.2h6.8l3.1,15.9v-15.9h6.4v33.1h-6.5l-3.3-16.6v16.6L440.7,136.4L440.7,136.4z"/>
		<path class="st1" d="M462.7,136.4v-26.8h-3.9v-6.4h14.5v6.4h-3.9v26.7L462.7,136.4L462.7,136.4z"/>
		<path class="st1" d="M475.2,136.4v-33.2h13.3v6.4h-6.6v6.5h6.3v6.2h-6.3v7.6h6.9v6.5L475.2,136.4L475.2,136.4z"/>
		<path class="st1" d="M498.9,136.6c-3.1,0-5.2-0.7-6.6-2.2s-2-3.9-2-7.2V124h6.6v4.1c0,0.8,0.1,1.3,0.4,1.8
			c0.3,0.4,0.6,0.6,1.3,0.6s1-0.2,1.3-0.5c0.3-0.4,0.4-0.9,0.4-1.7c0-1-0.1-1.9-0.3-2.5c-0.2-0.7-0.5-1.3-1.1-2
			c-0.5-0.6-1.2-1.3-2.1-2.2l-3-2.8c-2.2-2.1-3.3-4.5-3.3-7.2c0-2.8,0.6-4.9,2-6.5c1.3-1.5,3.2-2.2,5.7-2.2c3.1,0,5.2,0.8,6.5,2.4
			c1.3,1.6,1.9,4,1.9,7.4h-6.7v-2.2c0-0.4-0.1-0.8-0.4-1.1c-0.3-0.3-0.6-0.4-1.1-0.4c-0.5,0-0.9,0.2-1.2,0.4s-0.4,0.7-0.4,1.2
			c0,0.4,0.1,1,0.4,1.5c0.3,0.5,0.7,1.2,1.5,1.9l3.9,3.7c0.8,0.7,1.4,1.5,2.1,2.3s1.2,1.8,1.5,2.8c0.4,1.1,0.6,2.4,0.6,3.9
			c0,3.1-0.5,5.6-1.7,7.4C503.8,136,501.7,136.6,498.9,136.6z"/>
	</g>
</g>
</svg>
